# xmcd CD database file
#
# Track frame offsets:
#	182
#	9170
#	22555
#	39195
#	53770
#	68770
#	81710
#	93935
#	111977
#	125180
#	135190
#	150657
#	162887
#	175467
#	189935
#	202637
#	219372
#	230980
#	249900
#	259472
#
# Disc length: 3714 seconds
#
# Revision: 0
# Processed by: cddbd v1.5.1PL2 Copyright (c) Steve Scherf et al.
# Submitted via: CDex 1.51
#
DISCID=000e8014
DTITLE=Various Artist - ロック秘宝館
DYEAR=1994
DGENRE=Rock
TTITLE0=Apricot Brandy  Rhinoceros
TTITLE1=Kick Out The Jams  MC5
TTITLE2=Polk Salad Annie  Tony Joe White
TTITLE3=Know One Knows  Badfinger
TTITLE4=Be My Lover  Alice Cooper
TTITLE5=Someday Man  Paul Williams
TTITLE6=Mad  Harpers  Bizarre
TTITLE7=Spirit In The Sky  Norman Greenbaum
TTITLE8=Willin'  Little Feat
TTITLE9=Six Man Band  Association
TTITLE10=To Put Up With You  Holy Mackerel
TTITLE11=I'm With You  Love
TTITLE12=Soul Sister  Allen Toussaint
TTITLE13=Suavencito  Malo
TTITLE14=Hey Mr. President  Electric Prunes
TTITLE15=Down On The Street  The Stooges
TTITLE16=Run Run Run  Jo Jo Gunne
TTITLE17=What Happened To The World That Day  Tower Of Power
TTITLE18=Motorcycle Mama  Sailcat
TTITLE19=When I'm Gone  Phil  Ochs
EXTD=YEAR: 1994
EXTT0=
EXTT1=
EXTT2=
EXTT3=
EXTT4=
EXTT5=
EXTT6=
EXTT7=
EXTT8=
EXTT9=
EXTT10=
EXTT11=
EXTT12=
EXTT13=
EXTT14=
EXTT15=
EXTT16=
EXTT17=
EXTT18=
EXTT19=
PLAYORDER=
